<svg xmlns="http://www.w3.org/2000/svg" viewBox="0 0 2172 724" role="img" aria-labelledby="title desc">
  <title id="title">Groundwork provider-neutral persistence banner</title>
  <desc id="desc">A light, minimal banner showing Groundwork core abstractions flowing into SQLite, SQL Server, PostgreSQL, and MongoDB providers.</desc>

  <defs>
    <linearGradient id="page" x1="0" y1="0" x2="1" y2="1">
      <stop offset="0" stop-color="#ffffff"/>
      <stop offset="0.52" stop-color="#fbfdff"/>
      <stop offset="1" stop-color="#f6fbf8"/>
    </linearGradient>

    <radialGradient id="glow" cx="50%" cy="43%" r="62%">
      <stop offset="0" stop-color="#e8f8ff" stop-opacity="0.48"/>
      <stop offset="0.55" stop-color="#effdf7" stop-opacity="0.22"/>
      <stop offset="1" stop-color="#ffffff" stop-opacity="0"/>
    </radialGradient>

    <linearGradient id="coreStroke" x1="0" y1="0" x2="1" y2="1">
      <stop offset="0" stop-color="#14b8a6"/>
      <stop offset="0.55" stop-color="#38bdf8"/>
      <stop offset="1" stop-color="#84cc16"/>
    </linearGradient>

    <linearGradient id="coreFill" x1="0" y1="0" x2="1" y2="1">
      <stop offset="0" stop-color="#ffffff"/>
      <stop offset="1" stop-color="#f8fafc"/>
    </linearGradient>

    <pattern id="grid" width="42" height="42" patternUnits="userSpaceOnUse">
      <path d="M 42 0 L 0 0 0 42" fill="none" stroke="#c7dcf6" stroke-width="1.15"/>
    </pattern>

    <filter id="cardShadow" x="-15%" y="-20%" width="130%" height="145%">
      <feDropShadow dx="0" dy="16" stdDeviation="18" flood-color="#0f172a" flood-opacity="0.11"/>
    </filter>

    <filter id="softShadow" x="-15%" y="-20%" width="130%" height="145%">
      <feDropShadow dx="0" dy="10" stdDeviation="14" flood-color="#0f172a" flood-opacity="0.08"/>
    </filter>

    <style>
      .font {
        font-family: Inter, ui-sans-serif, system-ui, -apple-system, BlinkMacSystemFont, "Segoe UI", sans-serif;
      }

      .label {
        fill: #0f172a;
        font-size: 29px;
        font-weight: 760;
      }

      .subtle {
        fill: #64748b;
        font-size: 17px;
        font-weight: 560;
      }

      .micro {
        fill: #64748b;
        font-size: 14px;
        font-weight: 620;
        letter-spacing: 0.2px;
      }

      .connector {
        fill: none;
        stroke-width: 3;
        stroke-linecap: round;
        stroke-linejoin: round;
      }
    </style>
  </defs>

  <rect width="2172" height="724" fill="url(#page)"/>
  <rect width="2172" height="724" fill="url(#grid)" opacity="0.82"/>
  <ellipse cx="1086" cy="322" rx="812" ry="305" fill="url(#glow)"/>

  <g opacity="0.55">
    <path d="M126 589 C394 494 524 628 804 542 C1061 463 1127 241 1422 277 C1695 311 1832 479 2044 399" fill="none" stroke="#dbeafe" stroke-width="2"/>
    <path d="M181 166 C462 95 612 206 844 143 C1119 70 1321 118 1535 189 C1745 258 1875 208 2037 130" fill="none" stroke="#d1fae5" stroke-width="2"/>
  </g>

  <g class="font">
    <text x="118" y="78" fill="#0f172a" font-size="36" font-weight="820">Groundwork</text>
    <text x="118" y="113" fill="#64748b" font-size="19" font-weight="560">provider-neutral persistence for .NET applications</text>
  </g>

  <g opacity="0.7">
    <circle cx="611" cy="108" r="4" fill="#38bdf8"/>
    <circle cx="1532" cy="91" r="5" fill="#22c55e"/>
    <circle cx="1879" cy="589" r="4" fill="#f97316"/>
    <circle cx="922" cy="622" r="5" fill="#14b8a6"/>
    <circle cx="343" cy="482" r="3" fill="#84cc16"/>
  </g>

  <g class="font" filter="url(#cardShadow)">
    <rect x="660" y="147" width="852" height="431" rx="34" fill="url(#coreFill)" stroke="url(#coreStroke)" stroke-width="3"/>
    <rect x="699" y="186" width="774" height="353" rx="28" fill="#ffffff" stroke="#dbeafe" stroke-width="2"/>

    <g transform="translate(749 229)">
      <rect width="674" height="76" rx="20" fill="#f8fafc" stroke="#cbd5e1" stroke-width="1.5"/>
      <g transform="translate(27 18)">
        <rect width="40" height="40" rx="12" fill="#ecfeff" stroke="#14b8a6" stroke-width="2"/>
        <path d="M12 21 L19 28 L30 12" fill="none" stroke="#0f766e" stroke-width="3.5" stroke-linecap="round" stroke-linejoin="round"/>
      </g>
      <text x="91" y="35" class="label">Core Abstractions</text>
      <text x="91" y="58" class="subtle">manifests, intents, capabilities, plans</text>
    </g>

    <g transform="translate(748 350)">
      <g>
        <rect width="155" height="62" rx="17" fill="#ecfeff" stroke="#14b8a6" stroke-width="2"/>
        <text x="28" y="38" fill="#0f766e" font-size="20" font-weight="730">Manifest</text>
      </g>
      <g transform="translate(174 0)">
        <rect width="155" height="62" rx="17" fill="#eff6ff" stroke="#38bdf8" stroke-width="2"/>
        <text x="43" y="38" fill="#0369a1" font-size="20" font-weight="730">Query</text>
      </g>
      <g transform="translate(348 0)">
        <rect width="155" height="62" rx="17" fill="#fefce8" stroke="#facc15" stroke-width="2"/>
        <text x="43" y="38" fill="#854d0e" font-size="20" font-weight="730">Index</text>
      </g>
      <g transform="translate(522 0)">
        <rect width="155" height="62" rx="17" fill="#f0fdf4" stroke="#84cc16" stroke-width="2"/>
        <text x="23" y="38" fill="#3f6212" font-size="20" font-weight="730">Version</text>
      </g>
    </g>

    <g transform="translate(760 458)">
      <path d="M0 0 H652" stroke="#e2e8f0" stroke-width="2"/>
      <g transform="translate(0 35)">
        <path d="M0 0 H94 M0 24 H66 M0 48 H119" stroke="#14b8a6" stroke-width="6" stroke-linecap="round"/>
      </g>
      <g transform="translate(168 35)">
        <path d="M0 0 H123 M0 24 H75 M0 48 H104" stroke="#38bdf8" stroke-width="6" stroke-linecap="round"/>
      </g>
      <g transform="translate(360 35)">
        <path d="M0 0 H88 M0 24 H128 M0 48 H71" stroke="#facc15" stroke-width="6" stroke-linecap="round"/>
      </g>
      <g transform="translate(540 35)">
        <path d="M0 0 H112 M0 24 H64 M0 48 H93" stroke="#84cc16" stroke-width="6" stroke-linecap="round"/>
      </g>
    </g>
  </g>

  <g>
    <path class="connector" d="M660 253 C572 234 500 221 411 209" stroke="#38bdf8"/>
    <path class="connector" d="M660 337 C566 337 481 337 385 337" stroke="#ef4444"/>
    <path class="connector" d="M660 432 C562 455 492 480 415 520" stroke="#0ea5e9"/>
    <path class="connector" d="M1512 250 C1606 226 1673 209 1762 198" stroke="#22c55e"/>
    <path class="connector" d="M1512 337 C1605 337 1681 337 1767 337" stroke="#f97316"/>
    <path class="connector" d="M1512 431 C1604 456 1671 486 1748 526" stroke="#84cc16"/>

    <g fill="#ffffff">
      <circle cx="660" cy="253" r="6" stroke="#38bdf8" stroke-width="3"/>
      <circle cx="660" cy="337" r="6" stroke="#ef4444" stroke-width="3"/>
      <circle cx="660" cy="432" r="6" stroke="#0ea5e9" stroke-width="3"/>
      <circle cx="1512" cy="250" r="6" stroke="#22c55e" stroke-width="3"/>
      <circle cx="1512" cy="337" r="6" stroke="#f97316" stroke-width="3"/>
      <circle cx="1512" cy="431" r="6" stroke="#84cc16" stroke-width="3"/>
    </g>
  </g>

  <g class="font" filter="url(#softShadow)">
    <g transform="translate(126 150)">
      <rect width="300" height="118" rx="28" fill="#ffffff" stroke="#38bdf8" stroke-width="2.5"/>
      <circle cx="61" cy="59" r="34" fill="#e0f2fe" stroke="#38bdf8" stroke-width="2.5"/>
      <path d="M40 61 C57 25 80 29 84 59 C87 88 56 95 40 61 Z" fill="#38bdf8" opacity="0.22"/>
      <path d="M43 71 L80 34" stroke="#0f172a" stroke-width="4" stroke-linecap="round"/>
      <text x="113" y="53" class="label">SQLite</text>
      <text x="113" y="82" class="micro">embedded provider</text>
    </g>

    <g transform="translate(86 278)">
      <rect width="304" height="118" rx="28" fill="#ffffff" stroke="#ef4444" stroke-width="2.5"/>
      <circle cx="61" cy="59" r="34" fill="#fee2e2" stroke="#ef4444" stroke-width="2.5"/>
      <path d="M35 49 C35 37 87 37 87 49 L87 71 C87 83 35 83 35 71 Z" fill="none" stroke="#dc2626" stroke-width="5"/>
      <path d="M35 49 C35 61 87 61 87 49 M35 60 C35 72 87 72 87 60" fill="none" stroke="#dc2626" stroke-width="3"/>
      <text x="113" y="53" class="label">SQL Server</text>
      <text x="113" y="82" class="micro">relational provider</text>
    </g>

    <g transform="translate(126 461)">
      <rect width="300" height="118" rx="28" fill="#ffffff" stroke="#0ea5e9" stroke-width="2.5"/>
      <circle cx="61" cy="59" r="34" fill="#e0f2fe" stroke="#0ea5e9" stroke-width="2.5"/>
      <path d="M40 64 C36 39 55 28 75 36 C96 45 99 70 82 83 C66 95 45 85 40 64 Z" fill="none" stroke="#0369a1" stroke-width="4" stroke-linecap="round"/>
      <circle cx="70" cy="50" r="4" fill="#0369a1"/>
      <path d="M82 59 C96 61 99 76 85 83" fill="none" stroke="#0369a1" stroke-width="4" stroke-linecap="round"/>
      <text x="113" y="53" class="label">PostgreSQL</text>
      <text x="113" y="82" class="micro">relational provider</text>
    </g>

    <g transform="translate(1746 139)">
      <rect width="306" height="118" rx="28" fill="#ffffff" stroke="#22c55e" stroke-width="2.5"/>
      <circle cx="61" cy="59" r="34" fill="#dcfce7" stroke="#22c55e" stroke-width="2.5"/>
      <path d="M62 28 C82 51 82 75 61 93 C42 75 42 50 62 28 Z" fill="#22c55e"/>
      <path d="M62 36 L62 92" stroke="#f0fdf4" stroke-width="3.5" stroke-linecap="round"/>
      <text x="113" y="53" class="label">MongoDB</text>
      <text x="113" y="82" class="micro">document provider</text>
    </g>

    <g transform="translate(1770 278)">
      <rect width="294" height="118" rx="28" fill="#ffffff" stroke="#f97316" stroke-width="2.5"/>
      <circle cx="61" cy="59" r="34" fill="#ffedd5" stroke="#f97316" stroke-width="2.5"/>
      <path d="M37 39 H85 V79 H37 Z" fill="none" stroke="#ea580c" stroke-width="4"/>
      <path d="M37 53 H85 M53 39 V79 M69 39 V79" stroke="#ea580c" stroke-width="4"/>
      <text x="113" y="53" class="label">Tables</text>
      <text x="113" y="82" class="micro">relational shape</text>
    </g>

    <g transform="translate(1748 461)">
      <rect width="306" height="118" rx="28" fill="#ffffff" stroke="#84cc16" stroke-width="2.5"/>
      <circle cx="61" cy="59" r="34" fill="#ecfccb" stroke="#84cc16" stroke-width="2.5"/>
      <path d="M38 38 H84 V56 H38 Z M38 68 H84 V86 H38 Z" fill="none" stroke="#65a30d" stroke-width="4"/>
      <path d="M49 47 H72 M49 77 H76" stroke="#65a30d" stroke-width="4" stroke-linecap="round"/>
      <text x="113" y="53" class="label">Documents</text>
      <text x="113" y="82" class="micro">portable envelopes</text>
    </g>
  </g>

  <g class="font" opacity="0.9">
    <g transform="translate(916 98)">
      <rect width="340" height="38" rx="19" fill="#ffffff" stroke="#dbeafe" stroke-width="1.5"/>
      <circle cx="26" cy="19" r="6" fill="#14b8a6"/>
      <text x="44" y="25" fill="#64748b" font-size="14" font-weight="680">validate once, materialize per provider</text>
    </g>
  </g>
</svg>
